<?xml version="1.0" encoding="UTF-8"?>
<!DOCTYPE svg PUBLIC "-//W3C//DTD SVG 1.1//EN" "http://www.w3.org/Graphics/SVG/1.1/DTD/svg11.dtd">
<!-- Creator: CorelDRAW X6 -->
<svg xmlns="http://www.w3.org/2000/svg" xml:space="preserve" width="3508px" height="2480px" version="1.1" style="shape-rendering:geometricPrecision; text-rendering:geometricPrecision; image-rendering:optimizeQuality; fill-rule:evenodd; clip-rule:evenodd"
viewBox="0 0 3508 2480"
 xmlns:xlink="http://www.w3.org/1999/xlink">
 <defs>
  <style type="text/css">
   <![CDATA[
    .fil0 {fill:white;fill-rule:nonzero}
   ]]>
  </style>
 </defs>
 <g id="Слой_x0020_1">
  <metadata id="CorelCorpID_0Corel-Layer"/>
  <path class="fil0" d="M-385 1350c-27,0 -51,-13 -71,-39 -19,-27 -29,-58 -29,-94l0 -1437c0,-36 10,-67 29,-94 20,-26 44,-39 71,-39l791 0c27,0 51,13 71,39 20,27 30,58 30,94l0 1437c0,36 -10,67 -30,94 -20,26 -44,39 -71,39l-100 0c-27,0 -50,-13 -69,-39 -20,-27 -29,-58 -29,-94l0 -1232c0,-12 -6,-19 -16,-19l-363 0c-10,0 -15,7 -15,19l0 1232c0,36 -10,67 -29,94 -20,26 -43,39 -70,39l-100 0z"/>
  <path id="1" class="fil0" d="M1034 599l0 289c0,51 18,99 54,141 36,43 77,65 122,65 54,0 97,-30 129,-88 31,-58 47,-146 47,-263 0,-233 -58,-350 -176,-350 -45,0 -86,22 -122,65 -36,42 -54,89 -54,141zm-177 1265c-27,0 -51,-14 -71,-40 -20,-26 -30,-58 -30,-93l0 -1461c0,-36 10,-67 30,-94 20,-26 44,-39 71,-39l70 0c28,0 52,12 72,38 20,26 31,57 32,95l0 18c0,2 0,3 2,3l3 -5c75,-115 165,-173 271,-173 109,0 196,55 261,164 65,109 98,264 98,466 0,196 -34,351 -101,463 -68,112 -154,168 -258,168 -97,0 -184,-48 -260,-143 -2,-1 -3,-2 -4,-2 -1,0 -2,1 -2,2l0 500c0,35 -10,67 -30,93 -19,26 -43,40 -70,40l-84 0z"/>
  <path id="2" class="fil0" d="M2376 463c-29,-57 -73,-86 -131,-86 -59,0 -103,29 -131,86 -29,58 -44,151 -44,280 0,130 15,223 44,281 28,57 72,86 131,86 58,0 102,-29 131,-86 28,-58 43,-151 43,-281 0,-129 -15,-222 -43,-280zm208 745c-81,110 -194,166 -339,166 -146,0 -259,-56 -340,-166 -81,-111 -121,-265 -121,-465 0,-199 40,-354 121,-464 81,-110 194,-166 340,-166 145,0 258,56 339,166 81,110 121,265 121,464 0,200 -40,354 -121,465z"/>
  <path id="3" class="fil0" d="M2975 1350c-27,0 -51,-13 -70,-39 -19,-27 -29,-58 -29,-94l0 -947c0,-36 10,-67 29,-94 19,-26 43,-39 70,-39l93 0c29,0 57,11 82,33 26,23 46,52 58,88l182 551 3 2 2 -2 183 -551c13,-36 32,-65 57,-88 25,-22 53,-33 82,-33l98 0c27,0 50,13 70,39 19,27 29,58 29,94l0 947c0,36 -10,67 -29,94 -20,26 -43,39 -70,39l-81 0c-27,0 -50,-13 -69,-39 -19,-27 -29,-58 -29,-94l0 -569 -2 -3 -2 3 -96 303c-12,38 -31,67 -56,89 -25,22 -53,33 -83,33l-9 0c-31,0 -58,-11 -84,-33 -25,-22 -43,-51 -55,-89l-97 -303 -2 -3 -1 3 0 569c0,36 -10,67 -29,94 -20,26 -43,39 -70,39l-75 0z"/>
  <path id="4" class="fil0" d="M4676 463c-28,-57 -72,-86 -131,-86 -58,0 -102,29 -131,86 -28,58 -43,151 -43,280 0,130 15,223 43,281 29,57 73,86 131,86 59,0 103,-29 131,-86 29,-58 43,-151 43,-281 0,-129 -14,-222 -43,-280zm209 745c-81,110 -194,166 -340,166 -145,0 -258,-56 -339,-166 -81,-111 -122,-265 -122,-465 0,-199 41,-354 122,-464 81,-110 194,-166 339,-166 146,0 259,56 340,166 81,110 121,265 121,464 0,200 -40,354 -121,465z"/>
  <path id="5" class="fil0" d="M5537 1014c-2,3 -2,7 0,11 1,4 4,6 7,6l350 0c11,0 16,-7 16,-19l0 -1027c0,-12 -5,-19 -16,-19l-200 0c-11,0 -16,7 -16,21 0,293 -9,502 -26,628 -18,126 -56,259 -115,399zm-313 710c-27,0 -50,-14 -70,-40 -20,-26 -30,-58 -30,-93l0 -455c0,-30 8,-55 23,-75 15,-20 34,-30 56,-30 11,0 17,-4 20,-12 69,-140 114,-276 137,-409 22,-132 33,-347 33,-644l0 -186c0,-36 10,-67 29,-94 20,-26 43,-39 70,-39l612 0c27,0 50,13 70,39 20,27 30,58 30,94l0 1232c0,12 5,19 14,19l41 0c27,0 50,13 70,39 20,27 30,58 30,94l0 427c0,35 -10,67 -30,93 -20,26 -43,40 -70,40l-76 0c-27,0 -50,-14 -70,-40 -20,-26 -30,-58 -30,-93l0 -220c0,-14 -5,-21 -14,-21l-655 0c-9,0 -14,7 -14,21l0 220c0,35 -10,67 -30,93 -20,26 -43,40 -70,40l-76 0z"/>
  <path id="6" class="fil0" d="M6816 599l0 289c0,51 18,99 54,141 36,43 76,65 122,65 54,0 97,-30 129,-88 31,-58 47,-146 47,-263 0,-233 -59,-350 -176,-350 -46,0 -86,22 -122,65 -36,42 -54,89 -54,141zm-177 1265c-27,0 -51,-14 -71,-40 -20,-26 -30,-58 -30,-93l0 -1461c0,-36 10,-67 30,-94 20,-26 44,-39 71,-39l70 0c28,0 52,12 72,38 20,26 31,57 32,95l0 18c0,2 0,3 1,3l4 -5c75,-115 165,-173 271,-173 109,0 196,55 261,164 65,109 98,264 98,466 0,196 -34,351 -101,463 -68,112 -154,168 -258,168 -97,0 -184,-48 -260,-143 -2,-1 -3,-2 -4,-2 -1,0 -2,1 -2,2l0 500c0,35 -10,67 -30,93 -20,26 -43,40 -70,40l-84 0z"/>
  <path id="7" class="fil0" d="M7896 1332l-313 -1072c-9,-29 -7,-57 6,-84 14,-26 33,-39 57,-39l113 0c28,0 54,12 77,36 24,24 40,55 48,92l146 726c0,1 1,2 2,2 1,0 1,-1 1,-2l161 -728c7,-38 22,-68 46,-91 24,-24 51,-35 82,-35l98 0c25,0 44,13 58,39 13,27 16,55 8,84l-308 1107c-48,171 -109,296 -181,375 -73,80 -171,126 -294,140 -27,3 -51,-8 -71,-33 -20,-26 -30,-58 -30,-95l0 -19c0,-35 10,-67 30,-93 19,-26 43,-42 71,-47 53,-11 93,-33 122,-66 29,-34 52,-87 71,-160 1,-6 2,-13 2,-19 0,-6 -1,-12 -2,-18z"/>
  <path id="8" class="fil0" d="M8739 1350c-27,0 -51,-13 -71,-39 -19,-27 -29,-58 -29,-94l0 -947c0,-36 10,-67 29,-94 20,-26 44,-39 71,-39l557 0c27,0 51,13 70,39 19,27 29,58 29,94l0 11c0,36 -10,67 -29,93 -19,25 -43,38 -70,38l-346 0c-9,0 -14,7 -14,21l0 784c0,36 -10,67 -30,94 -20,26 -43,39 -70,39l-97 0z"/>
 </g>
</svg>
